<svg xmlns="http://www.w3.org/2000/svg" version="1.1" xmlns:xlink="http://www.w3.org/1999/xlink" xmlns:svgjs="http://svgjs.dev/svgjs" width="1000" height="1125" viewBox="0 0 1000 1125"><g transform="matrix(1,0,0,1,0,0)"><svg viewBox="0 0 320 360" data-background-color="#b19dd0" preserveAspectRatio="xMidYMid meet" height="1125" width="1000" xmlns="http://www.w3.org/2000/svg" xmlns:xlink="http://www.w3.org/1999/xlink"><g id="tight-bounds" transform="matrix(1,0,0,1,0,0)"><svg viewBox="0 0 320 360" height="360" width="320"><g><svg></svg></g><g><svg viewBox="0 0 320 360" height="360" width="320"><g><path xmlns="http://www.w3.org/2000/svg" d="M219.58 41.008c0.707 0 6.365 2.829 9.547 3.89-1.061 0.354-3.536-0.707-6.365-1.768 0.707 0 2.122 0.354 3.536 1.06-0.707-0.707-6.011-2.475-6.718-3.182M166.895 30.047c1.061-0.354 13.436 1.414 19.094 1.768 0.354-0.354-0.707-0.354-2.122-0.707 1.768-0.354 5.304 0.707 7.779 1.06-7.425 0.354-15.558-1.768-22.629-1.06-2.475 0-0.707-0.707-2.122-1.061M156.641 30.047c6.365 0 11.315 0 2.121 0.707-1.061-0.354-2.475-0.354-2.121-0.707M256.707 59.395c0.707 0 3.536 3.182 4.95 4.243-0.354 0.354-3.182-2.475-4.596-3.536 0.354 0.354 0 0-0.354-0.707M249.635 54.798c-2.829-2.475-3.889-2.475-4.243-3.889 2.475 1.414 4.243 2.829 4.243 3.889M204.022 32.522c0.354-0.354 1.061 0.354 2.829 0.707-2.122-0.354-1.768 0-1.061 0.707-2.475-0.354-3.182-0.707-2.475-1.414 1.414 0.707 1.768 0.354 0.707 0M103.602 36.765c0-0.354 1.414-1.061 2.475-1.414-1.061 0.707-0.707 1.061 1.061 0.353 0 0.354-2.122 1.061-3.536 1.768 0.707-0.354 1.414-1.414 0-0.707M211.094 28.986c-1.061 0.354-4.95-1.768-8.84-2.475-2.122-0.707 8.486 1.768 8.84 2.475M2.475 203.66c2.122 8.84 0.707 8.486 0 0M2.829 150.621c0.354-1.414 0.707-5.304 1.06-4.95-1.061 8.486-2.829 12.376-3.182 18.74 1.061-5.657-0.354 3.182-0.707 5.304 0.354 2.829 0.354-1.768 1.061-1.06 0.707 1.061-1.414 15.912-0.707 7.779-0.707 7.425 0 15.558 1.414 17.679-1.768 11.315 7.072 36.773 8.84 42.077 0.354 0.354 0-1.768 0.707-0.353 0.707 4.597 3.889 7.779 4.95 12.729 1.061 1.414 5.304 9.193 6.011 10.962 1.414 2.829 2.122 2.475 3.536 5.303 4.243 8.133 10.961 15.912 17.326 23.337 20.508 24.044 51.978 43.845 86.984 50.918 35.006 7.425 71.779 2.122 100.419-11.669 1.768-1.061 1.414-1.414 3.536-2.122 9.901-3.182 21.923-13.436 28.641-17.326 3.182-3.536 11.669-9.547 12.73-13.082 6.011-4.95 12.022-13.083 15.204-18.387 1.768-2.829 3.182-2.829 3.889-4.597-0.354 0 5.657-7.425 7.426-11.668-0.707 0-1.768 2.122-1.768 0 12.729-24.398 19.801-57.282 15.911-79.912 0.707 27.934-6.365 59.05-19.801 78.851-6.011 12.729-18.387 26.519-29.701 36.42-1.768 1.768-3.536 3.889-5.658 5.304-6.718 5.657-14.144 10.254-21.922 14.497-18.387 10.254-38.895 19.094-62.94 19.447 41.37-3.536 78.497-24.398 99.006-49.856-15.558 15.204-22.276 21.215-39.602 30.055-1.414 2.475-13.083 7.425-20.862 9.547 4.597-2.122 14.144-5.657 17.326-8.486-25.812 12.376-54.453 19.448-81.326 15.558 10.254 0 24.751 0.354 38.541-2.121 2.122-0.707 3.182-1.414 5.658-1.768 26.873-6.011 52.685-19.094 71.072-37.481-10.608 9.547-26.519 20.862-36.774 24.398 9.547-5.304 26.873-15.558 32.53-23.337-11.315 11.315-32.53 22.63-45.966 27.58-2.122 0.354 1.414-1.414-2.122 0-4.243 1.061-2.475 1.061-3.536 1.768-16.265 4.597-35.006 8.486-50.563 7.072-2.829-0.354-3.889-1.061-6.365-1.061-2.829-0.354-5.304-0.354-8.486-0.354-12.376-1.414-25.812-6.365-35.713-10.607-5.304-2.475-10.608-4.243-15.912-7.426-4.243-2.475-7.779-5.304-11.314-8.132-13.436-9.901-24.751-19.801-35.36-33.945-19.094-26.519-28.994-59.757-27.58-92.641 1.414-32.884 14.497-65.061 35.359-88.752-1.061 1.061 1.414-2.475 3.536-4.596 0 0.707-0.354 1.768 2.122-0.707 2.122-2.475-0.707-0.707 0.353-2.122 21.923-24.044 60.111-43.492 99.36-44.199 1.414-1.061 3.889-2.475 6.718-1.768 0 0.354-1.768 0.354-1.768 0.354 3.889-0.354 7.425-0.354 9.193 0.353 0.354-0.354-1.414-0.707 0-0.707 2.475 0.707 3.182 0 4.597 0.707-1.061 0-2.122 0-2.829 0.354 8.84 0 14.497 2.122 23.337 2.829-4.597-1.061-5.657-1.061-9.193-2.122 3.889 0.707 5.657 1.414 7.425 1.061-0.707 0-0.354-1.061 0.354-0.707 7.072 1.768 7.779 2.475 15.204 4.95 0.707-0.707-3.182-1.061-4.243-2.122 7.072 2.475 13.436 4.243 17.68 7.072-1.414-1.061-5.657-2.475-8.84-3.889-0.354 0.354 1.061 0.707 1.414 1.414-3.536-1.768-8.486-3.536-13.436-4.243 4.243 1.061 7.072 2.475 8.84 3.182-3.889-0.707-8.84-3.182-14.498-4.243 9.193 2.829 26.519 9.193 37.127 14.851-3.889-2.475-8.486-4.243-10.961-5.657 2.122 0.354 4.597 1.768 4.597 1.06 2.475 1.061 5.657 3.536 7.425 3.89-3.182-2.122-9.547-5.304-11.668-6.365 26.519 12.022 50.21 32.177 65.414 57.989 1.414 2.475 3.536 8.133 5.304 8.84-0.354-1.768-1.768-2.829-3.182-5.657 0.707 0 0.707-1.061 0-2.122-1.414-1.768 0 1.414-1.415-0.354-6.365-11.669-14.144-21.923-26.165-33.237 6.718 6.365 1.768 1.768 0.353-0.354 9.193 8.133 19.801 21.923 24.398 28.995-0.707-1.061-1.061-1.768-0.707-1.768 8.486 14.497 13.79 27.58 19.094 46.32 0.354 0.354 0-1.414 0.707-0.353 3.536 14.851 4.597 27.227 4.243 38.541 2.829-19.094-3.536-48.796-14.851-72.133-1.414-2.829-1.414-0.707-2.829-3.889 0-1.061-1.061-3.182-1.768-4.597-14.144-23.337-31.47-39.956-51.978-53.038 1.414 0.707 4.243 2.829 4.244 2.475-38.188-25.105-82.387-28.641-118.807-20.862-2.475 1.061-3.536 2.122-6.365 3.536 5.304-1.768 8.486-2.122 13.437-3.183 1.061-1.061-4.597 0.354-2.122-0.707 0.354 0.354 4.95-0.707 6.011-0.353 0 0.354-1.414 0.707-1.768 1.06 11.669-2.475 23.691-2.829 33.945-2.121-6.011 0.354-16.972-0.707-20.508 1.061 3.536-0.354 8.486-0.707 11.668-0.354-4.243 0-12.022 0.354-15.558 0.707-0.354-0.354 5.657-1.061 1.768-1.06-1.768 0.354-4.597 0.354-5.657 1.414-30.409 2.829-60.111 18.74-80.973 37.481-4.243 3.536-9.193 7.425-12.375 11.314-7.779 8.84-12.729 17.68-18.387 25.459 3.536-7.425 11.315-18.74 20.508-28.287 9.193-9.547 19.094-17.68 24.398-21.923 0 1.414 8.486-5.304 11.669-7.425-2.122 1.768 1.414-0.707 2.121-0.354 11.315-6.718 20.508-9.193 30.763-13.083-2.475 0.707-4.597 1.414-4.951 1.061 2.475-0.707 3.889-1.414 3.536-1.768-9.901 2.829-25.459 9.547-37.834 16.972 22.276-15.204 50.564-24.398 78.497-24.751 27.934-0.707 55.16 6.365 76.729 17.68 14.497 6.365 28.287 18.033 39.249 29.348 3.182 2.829 0.707-0.707 5.304 4.243-1.414-0.707-2.475-1.414-0.707 0.707 2.829 3.182-0.707-2.475 3.889 3.182-0.354 0-1.768-1.768-1.768-1.061 12.376 10.961 21.923 30.762 27.58 43.846-1.414-5.304-4.95-12.729-7.779-18.033 8.486 15.558 11.315 24.751 14.851 38.541 1.414 1.061-0.707-4.95 0.707-2.121 0.354 2.122 0.707 8.84 2.122 9.9-1.061-6.718-2.829-14.851-4.243-16.265 1.061 0.707-1.768-8.133-3.536-10.254-0.707-5.657-5.657-15.558-9.901-22.984-15.204-29.702-42.431-54.099-72.839-67.536 0-0.707-1.768-1.414-2.476-2.121-30.055-12.729-66.122-16.265-100.773-8.133-35.006 8.486-67.889 28.641-91.227 57.636 1.061-3.536 9.901-10.254 10.255-13.083-10.254 10.961-21.215 25.459-28.641 41.016-7.779 15.558-12.022 31.47-13.79 43.138" fill="#7a26c1" fill-rule="nonzero" stroke="none" stroke-width="1" stroke-linecap="butt" stroke-linejoin="miter" stroke-miterlimit="10" stroke-dasharray="" stroke-dashoffset="0" font-family="none" font-weight="none" font-size="none" text-anchor="none" style="mix-blend-mode: normal" data-fill-palette-color="tertiary"></path></g><g transform="matrix(1,0,0,1,76.6215904522613,90)"><svg viewBox="0 0 166.7568190954774 180" height="180" width="166.7568190954774"><g><svg viewBox="0 0 166.7568190954774 180" height="180" width="166.7568190954774"><g><svg viewBox="0 0 166.7568190954774 180" height="180" width="166.7568190954774"><g id="textblocktransform"><svg viewBox="0 0 166.7568190954774 180" height="180" width="166.7568190954774" id="textblock"><g><svg viewBox="0 0 166.7568190954774 180" height="180" width="166.7568190954774"><path d="M166.366 38.607C165.582 19.923 163.348 14.728 163.348 14.728 156.489-4.516 147.928-0.368 140.237 2.397 126.659 2.509 113.136 6.62 99.589 8.824 71.155 9.161 42.477 3.63 14.184 17.27 11.527 21.455-2.757 18.092 0.473 40.998 1.319 50.527 4.408 61.102 4.314 69.846 4.737 71.378 5.325 67.866 5.576 70.07 6.454 76.012 7.889 73.209 9.065 76.722 7.426 86.101 8.602 93.911 9.723 102.095 7.748 104.225 5.216 103.216 4.079 110.278 3.961 115.398 3.326 114.426 2.629 114.202 2.119 114.052 1.092 114.613 1.265 116.22 1.852 121.713-0.672 124.889 0.912 130.27-0.178 136.099 1.664 141.144 1.413 147.459 1.382 148.73 1.555 149.813 1.829 150.112 3.044 151.719 1.272 154.858 1.461 158.258 13.925 181.501 27.449 165.433 40.219 176.12 43.536 168.647 41.043 178.773 42.368 177.204 43.402 175.373 44.155 182.959 45.323 178.661 45.503 177.428 45.229 174.514 45.872 175.074 46.209 175.373 46.507 175.298 46.554 173.579 46.624 171.001 46.005 172.608 45.84 171.263 47.62 164.462 47.181 180.642 48.851 179.969 48.772 177.989 48.286 175.149 49.282 175.522 50.27 172.682 50.301 170.328 51.179 176.718 51.211 178.101 51.367 179.072 51.618 179.745 54.362 172.795 57.09 182.211 59.967 179.072 61.731 175.635 63.425 180.941 65.212 179.633 65.839 178.587 66.474 176.718 67.078 179.857 74.471 180.53 82.349 177.727 89.358 179.969 108.087 175.784 128.101 181.688 147.849 176.158 152.506 174.028 157.343 171.001 161.882 168.572 161.882 168.572 165.559 161.921 165.559 132.026S166.343 105.869 166.46 82.065C166.578 58.262 167.127 57.29 166.343 38.607Z" opacity="1" fill="#7a26c1" data-fill-palette-color="tertiary"></path><g transform="matrix(1,0,0,1,31.583999999999996,19.1)"><svg width="103.5888190954774" viewBox="1 -38.11000061035156 28.389999389648438 38.869998931884766" height="141.8" data-palette-color="#b19dd0"><path d="M20.56-24.44L20.56-26.59Q20.43-27.44 19.96-28.2 19.48-28.96 18.74-29.5 17.99-30.05 17.05-30.37 16.11-30.69 15.09-30.69L15.09-30.69Q14.16-30.69 13.35-30.49 12.55-30.3 11.95-29.9 11.35-29.49 11-28.86 10.64-28.22 10.64-27.34L10.64-27.34Q10.64-26.25 11.12-25.6 11.6-24.95 12.34-24.54 13.09-24.12 13.99-23.88 14.89-23.63 15.75-23.34L15.75-23.34 22.46-21.09Q23.85-20.61 25.07-19.75 26.29-18.9 27.19-17.68 28.08-16.46 28.59-14.87 29.1-13.28 29.1-11.3L29.1-11.3Q29.1-8.62 28.11-6.4 27.12-4.17 25.34-2.59 23.56-1 21.07-0.12 18.58 0.76 15.55 0.76L15.55 0.76Q13.43 0.76 11.54 0.28 9.64-0.2 8.08-1.1 6.52-2 5.35-3.26 4.17-4.52 3.52-6.1L3.52-6.1 1-6.1 1-13.45 9.84-13.45 9.84-11.94Q9.84-10.84 10.19-9.91 10.55-8.98 11.25-8.3 11.96-7.62 13.04-7.24 14.11-6.86 15.55-6.86L15.55-6.86Q17.75-6.86 18.9-7.87 20.04-8.89 20.04-10.69L20.04-10.69Q20.04-11.62 19.64-12.24 19.24-12.87 18.6-13.29 17.97-13.72 17.19-14.01 16.41-14.31 15.65-14.55L15.65-14.55 10.06-16.36Q8.47-16.85 6.99-17.72 5.52-18.6 4.38-19.92 3.25-21.24 2.58-23.01 1.9-24.78 1.9-27.05L1.9-27.05Q1.9-29.69 2.88-31.75 3.86-33.81 5.62-35.23 7.37-36.65 9.79-37.38 12.21-38.11 15.09-38.11L15.09-38.11Q17.36-38.11 19.29-37.59 21.22-37.06 22.74-36.18 24.27-35.3 25.33-34.17 26.39-33.03 26.95-31.81L26.95-31.81 29.39-31.81 29.39-24.44 20.56-24.44Z" opacity="1" transform="matrix(1,0,0,1,0,0)" fill="#b19dd0" class="undefined-text-0" data-fill-palette-color="quaternary" id="text-0"></path></svg></g></svg></g></svg></g></svg></g><g></g></svg></g></svg></g></svg></g><defs></defs></svg><rect width="320" height="360" fill="none" stroke="none" visibility="hidden"></rect></g></svg></g></svg>